<svg class="bg-image center" width="1020" height="1020" viewBox="0 0 1020 1020" fill="none"
	xmlns="http://www.w3.org/2000/svg">
	<path fill-rule="evenodd" clip-rule="evenodd" d="M481.998 1019.22L509.998 509.507L538 1019.27C528.892 1019.76 519.72 1020 510.492 1020C500.93 1020 491.43 1019.74 481.998 1019.22Z" fill="#2D3E50"/>
	<path fill-rule="evenodd" clip-rule="evenodd" d="M538.001 0.782557L510.001 510.494L481.999 0.729269C491.107 0.245169 500.279 2.20594e-05 509.508 2.28662e-05C519.069 2.37021e-05 528.569 0.263147 538.001 0.782557Z" fill="#2D3E50"/>
	<path fill-rule="evenodd" clip-rule="evenodd" d="M0.782478 481.999L510.494 509.999L0.729192 538.001C0.245092 528.893 -5.49953e-05 519.721 -5.45919e-05 510.492C-5.41739e-05 500.931 0.263069 491.431 0.782478 481.999Z" fill="#2D3E50"/>
	<path fill-rule="evenodd" clip-rule="evenodd" d="M1019.22 538.001L509.505 510.002L1019.27 481.999C1019.75 491.107 1020 500.279 1020 509.508C1020 519.069 1019.74 528.57 1019.22 538.001Z" fill="#2D3E50"/>
	<path fill-rule="evenodd" clip-rule="evenodd" d="M169.727 130.129L510.349 510.348L130.09 169.691C136.188 162.908 142.5 156.249 149.026 149.723C155.787 142.962 162.691 136.431 169.727 130.129Z" fill="#2D3E50"/>
	<path fill-rule="evenodd" clip-rule="evenodd" d="M850.271 889.871L509.649 509.652L889.908 850.309C883.81 857.092 877.498 863.751 870.972 870.277C864.211 877.038 857.307 883.569 850.271 889.871Z" fill="#2D3E50"/>
	<path fill-rule="evenodd" clip-rule="evenodd" d="M889.872 169.729L509.652 510.351L850.31 130.092C857.092 136.19 863.751 142.502 870.277 149.027C877.038 155.789 883.569 162.692 889.872 169.729Z" fill="#2D3E50"/>
	<path fill-rule="evenodd" clip-rule="evenodd" d="M130.129 850.272L510.349 509.65L169.691 889.909C162.909 883.811 156.25 877.499 149.724 870.973C142.963 864.212 136.431 857.308 130.129 850.272Z" fill="#2D3E50"/>
	<path fill-rule="evenodd" clip-rule="evenodd" d="M964.997 279.641L509.575 510.248L937.043 231.115C942.016 238.761 946.814 246.581 951.428 254.574C956.209 262.854 960.731 271.213 964.997 279.641Z" fill="#2D3E50"/>
	<path fill-rule="evenodd" clip-rule="evenodd" d="M55.0049 740.359L510.428 509.752L82.9598 788.885C77.9865 781.239 73.1884 773.419 68.5739 765.426C63.7931 757.146 59.271 748.787 55.0049 740.359Z" fill="#2D3E50"/>
	<path fill-rule="evenodd" clip-rule="evenodd" d="M1009.11 405.252L509.525 510.129L994.672 351.144C997.497 359.817 1000.11 368.612 1002.5 377.527C1004.97 386.763 1007.18 396.007 1009.11 405.252Z" fill="#2D3E50"/>
	<path fill-rule="evenodd" clip-rule="evenodd" d="M10.8872 614.748L510.477 509.871L25.3302 668.856C22.5052 660.183 19.8946 651.388 17.506 642.473C15.0313 633.238 12.8266 623.993 10.8872 614.748Z" fill="#2D3E50"/>
	<path fill-rule="evenodd" clip-rule="evenodd" d="M994.62 668.842L509.523 509.874L1009.17 614.762C1007.28 623.685 1005.14 632.608 1002.75 641.522C1000.28 650.758 997.563 659.866 994.62 668.842Z" fill="#2D3E50"/>
	<path fill-rule="evenodd" clip-rule="evenodd" d="M25.3812 351.158L510.478 510.127L10.8353 405.238C12.725 396.315 14.8621 387.392 17.2507 378.478C19.7254 369.242 22.4383 360.134 25.3812 351.158Z" fill="#2D3E50"/>
	<path fill-rule="evenodd" clip-rule="evenodd" d="M936.995 788.858L509.572 509.755L965.042 740.386C960.907 748.516 956.534 756.581 951.919 764.574C947.139 772.854 942.161 780.95 936.995 788.858Z" fill="#2D3E50"/>
	<path fill-rule="evenodd" clip-rule="evenodd" d="M83.0062 231.142L510.429 510.246L54.959 279.614C59.0938 271.484 63.4674 263.419 68.0819 255.426C72.8626 247.146 77.8405 239.05 83.0062 231.142Z" fill="#2D3E50"/>
	<path fill-rule="evenodd" clip-rule="evenodd" d="M740.361 964.996L509.753 509.573L788.887 937.041C781.241 942.015 773.42 946.813 765.428 951.427C757.147 956.208 748.788 960.73 740.361 964.996Z" fill="#2D3E50"/>
	<path fill-rule="evenodd" clip-rule="evenodd" d="M279.642 55.0041L510.25 510.427L231.116 82.959C238.762 77.9857 246.583 73.1876 254.575 68.5731C262.856 63.7923 271.214 59.2701 279.642 55.0041Z" fill="#2D3E50"/>
	<path fill-rule="evenodd" clip-rule="evenodd" d="M614.747 1009.11L509.87 509.524L668.855 994.671C660.182 997.496 651.387 1000.11 642.472 1002.5C633.237 1004.97 623.992 1007.17 614.747 1009.11Z" fill="#2D3E50"/>
	<path fill-rule="evenodd" clip-rule="evenodd" d="M405.251 10.8864L510.128 510.477L351.143 25.3294C359.816 22.5044 368.611 19.8938 377.526 17.5052C386.762 15.0305 396.006 12.8259 405.251 10.8864Z" fill="#2D3E50"/>
	<path fill-rule="evenodd" clip-rule="evenodd" d="M351.157 994.619L510.125 509.523L405.237 1009.17C396.314 1007.28 387.391 1005.14 378.477 1002.75C369.241 1000.27 360.133 997.562 351.157 994.619Z" fill="#2D3E50"/>
	<path fill-rule="evenodd" clip-rule="evenodd" d="M668.842 25.3805L509.873 510.477L614.761 10.8346C623.684 12.7244 632.607 14.8614 641.521 17.25C650.757 19.7247 659.866 22.4377 668.842 25.3805Z" fill="#2D3E50"/>
	<path fill-rule="evenodd" clip-rule="evenodd" d="M231.14 936.995L510.245 509.572L279.613 965.042C271.483 960.907 263.417 956.534 255.425 951.919C247.144 947.139 239.049 942.161 231.14 936.995Z" fill="#2D3E50"/>
	<path fill-rule="evenodd" clip-rule="evenodd" d="M788.858 83.0049L509.754 510.428L740.386 54.9577C748.516 59.0926 756.581 63.4661 764.574 68.0807C772.854 72.8614 780.95 77.8392 788.858 83.0049Z" fill="#2D3E50"/>
</svg>
