<svg width="579" height="224" viewBox="0 0 579 224" fill="none" xmlns="http://www.w3.org/2000/svg">
<path d="M94 25.875V4H115.875V7.125H100.25V13.375H112.75V16.5H100.25V25.875H94Z" fill="white"/>
<path d="M122.125 25.875V22.75H119V4H125.25V22.75H134.625V4H140.875V22.75H137.75V25.875H122.125Z" fill="white"/>
<path d="M144 25.875V4H150.25V7.125H153.375V10.25H156.5V13.375H159.625V4H165.875V25.875H159.625V19.625H156.5V16.5H153.375V13.375H150.25V25.875H144Z" fill="white"/>
<path d="M197.125 25.875V22.75H194V4H200.25V16.5H203.375V4H206.5V16.5H209.625V4H215.875V22.75H212.75V25.875H209.625V22.75H206.5V19.625H203.375V22.75H200.25V25.875H197.125Z" fill="white"/>
<path d="M222.125 25.875V22.75H228.375V7.125H222.125V4H240.875V7.125H234.625V22.75H240.875V25.875H222.125Z" fill="white"/>
<path d="M253.375 25.875V7.125H247.125V4H265.875V7.125H259.625V25.875H253.375Z" fill="white"/>
<path d="M269 25.875V4H275.25V13.375H284.625V4H290.875V25.875H284.625V16.5H275.25V25.875H269Z" fill="white"/>
<path d="M319 25.875V4H337.75V7.125H340.875V16.5H337.75V19.625H325.25V25.875H319ZM325.25 16.5H334.625V7.125H325.25V16.5Z" fill="white"/>
<path d="M344 25.875V10.25H347.125V7.125H350.25V4H359.625V7.125H362.75V10.25H365.875V25.875H359.625V19.625H350.25V25.875H344ZM350.25 16.5H359.625V10.25H356.5V7.125H353.375V10.25H350.25V16.5Z" fill="white"/>
<path d="M369 25.875V4H387.75V7.125H390.875V16.5H387.75V19.625H375.25V25.875H369ZM375.25 16.5H384.625V7.125H375.25V16.5Z" fill="white"/>
<path d="M394 25.875V4H415.875V7.125H400.25V13.375H412.75V16.5H400.25V22.75H415.875V25.875H394Z" fill="white"/>
<path d="M419 25.875V4H437.75V7.125H440.875V16.5H434.625V19.625H437.75V22.75H440.875V25.875H431.5V22.75H428.375V19.625H425.25V25.875H419ZM425.25 16.5H431.5V13.375H434.625V7.125H425.25V16.5Z" fill="white"/>
<path d="M469 25.875V19.625H472.125V16.5H475.25V13.375H481.5V10.25H484.625V7.125H475.25V10.25H469V7.125H472.125V4H487.75V7.125H490.875V13.375H487.75V16.5H484.625V19.625H478.375V22.75H490.875V25.875H469Z" fill="white"/>
<path fill-rule="evenodd" clip-rule="evenodd" d="M90 29.875V0H129.25V18.75H130.625V0H154.25V3.125H155.625V0H169.875V29.875H155.625V23.625H154.25V29.875H118.125V26.75H115V20.5H104.25V29.875H90ZM100.25 16.5H112.75V13.375H100.25V7.125H115.875V4H94V25.875H100.25V16.5ZM119 22.75H122.125V25.875H137.75V22.75H140.875V4H134.625V22.75H125.25V4H119V22.75ZM150.25 25.875V13.375H153.375V16.5H156.5V19.625H159.625V25.875H165.875V4H159.625V13.375H156.5V10.25H153.375V7.125H150.25V4H144V25.875H150.25ZM193.125 29.875V26.75H190V0H279.25V9.375H280.625V0H294.875V29.875H280.625V20.5H279.25V29.875H265V11.125H263.625V29.875H249.375V11.125H238.625V18.75H244.875V29.875H218.125V26.75H216.75V29.875H205.625V26.75H204.25V29.875H193.125ZM203.375 22.75V19.625H206.5V22.75H209.625V25.875H212.75V22.75H215.875V4H209.625V16.5H206.5V4H203.375V16.5H200.25V4H194V22.75H197.125V25.875H200.25V22.75H203.375ZM219.875 18.75H224.375V11.125H219.875V18.75ZM228.375 22.75H222.125V25.875H240.875V22.75H234.625V7.125H240.875V4H222.125V7.125H228.375V22.75ZM253.375 25.875H259.625V7.125H265.875V4H247.125V7.125H253.375V25.875ZM269 25.875H275.25V16.5H284.625V25.875H290.875V4H284.625V13.375H275.25V4H269V25.875ZM315 29.875V0H341.75V3.125H346.25V0H363.625V3.125H365V0H441.75V3.125H444.875V29.875H390V23.625H379.25V29.875H355.625V23.625H354.25V29.875H340V23.625H329.25V29.875H315ZM344 25.875H350.25V19.625H359.625V25.875H365.875V10.25H362.75V7.125H359.625V4H350.25V7.125H347.125V10.25H344V25.875ZM350.25 16.5H359.625V10.25H356.5V7.125H353.375V10.25H350.25V16.5ZM369 25.875H375.25V19.625H387.75V16.5H390.875V7.125H387.75V4H369V25.875ZM375.25 16.5H384.625V7.125H375.25V16.5ZM379.25 12.5V11.125H380.625V12.5H379.25ZM394 4V25.875H415.875V22.75H400.25V16.5H412.75V13.375H400.25V7.125H415.875V4H394ZM419 25.875H425.25V19.625H428.375V22.75H431.5V25.875H440.875V22.75H437.75V19.625H434.625V16.5H440.875V7.125H437.75V4H419V25.875ZM425.25 16.5H431.5V13.375H434.625V7.125H425.25V16.5ZM340.875 16.5V7.125H337.75V4H319V25.875H325.25V19.625H337.75V16.5H340.875ZM334.625 7.125H325.25V16.5H334.625V7.125ZM330.625 12.5V11.125H329.25V12.5H330.625ZM465 29.875V15.625H468.125V14.25H465V3.125H468.125V0H491.75V3.125H494.875V17.375H491.75V18.75H494.875V29.875H465ZM484.625 16.5H487.75V13.375H490.875V7.125H487.75V4H472.125V7.125H469V10.25H475.25V7.125H484.625V10.25H481.5V13.375H475.25V16.5H472.125V19.625H469V25.875H490.875V22.75H478.375V19.625H484.625V16.5Z" fill="black"/>
<path d="M15 119V110H6V65H15V56H60V65H69V110H60V119H15ZM24 110H51V65H24V110Z" fill="white"/>
<path d="M78 119V56H141V65H96V83H132V92H96V119H78Z" fill="white"/>
<path d="M150 119V56H213V65H168V83H204V92H168V119H150Z" fill="white"/>
<path d="M231 119V110H249V65H231V56H285V65H267V110H285V119H231Z" fill="white"/>
<path d="M312 119V110H303V101H294V74H303V65H312V56H348V65H357V74H339V65H321V74H312V101H321V110H339V101H357V110H348V119H312Z" fill="white"/>
<path d="M375 119V110H393V65H375V56H429V65H411V110H429V119H375Z" fill="white"/>
<path d="M438 119V74H447V65H456V56H483V65H492V74H501V119H483V101H456V119H438ZM456 92H483V74H474V65H465V74H456V92Z" fill="white"/>
<path d="M519 119V56H537V110H573V119H519Z" fill="white"/>
<path d="M51 218V209H42V155H60V191H69V155H78V191H87V155H105V209H96V218H87V209H78V200H69V209H60V218H51Z" fill="white"/>
<path d="M114 218V155H177V164H132V182H168V191H132V209H177V218H114Z" fill="white"/>
<path d="M186 218V155H240V164H249V182H240V191H249V209H240V218H186ZM204 182H231V164H204V182ZM204 209H231V191H204V209Z" fill="white"/>
<path d="M267 218V209H258V200H276V209H303V191H267V182H258V164H267V155H312V164H321V173H303V164H276V182H312V191H321V209H312V218H267Z" fill="white"/>
<path d="M339 218V209H357V164H339V155H393V164H375V209H393V218H339Z" fill="white"/>
<path d="M429 218V164H411V155H465V164H447V218H429Z" fill="white"/>
<path d="M474 218V155H537V164H492V182H528V191H492V209H537V218H474Z" fill="white"/>
<path fill-rule="evenodd" clip-rule="evenodd" d="M9 125V116H0V59H9V50H66V59H72V50H219V71H174V77H210V98H174V125H144V71H102V77H138V98H102V125H72V116H66V125H9ZM96 92H132V83H96V65H141V56H78V119H96V92ZM168 92H204V83H168V65H213V56H150V119H168V92ZM51 110H24V65H51V110ZM45 71H30V104H45V71ZM225 125V104H243V71H225V50H291V68H297V59H306V50H354V59H363V80H333V71H327V80H318V95H327V104H333V95H363V116H354V125H306V116H297V107H291V125H225ZM288 104V71H273V104H288ZM267 110V65H285V56H231V65H249V110H231V119H285V110H267ZM321 110V101H312V74H321V65H339V74H357V65H348V56H312V65H303V74H294V101H303V110H312V119H348V110H357V101H339V110H321ZM369 125V104H387V71H369V50H435V68H441V59H450V50H489V59H498V68H507V125H477V107H462V125H369ZM432 104V71H417V104H432ZM411 110V65H429V56H375V65H393V110H375V119H429V110H411ZM456 101H483V119H501V74H492V65H483V56H456V65H447V74H438V119H456V101ZM462 80V86H477V80H462ZM483 92H456V74H465V65H474V74H483V92ZM513 125V50H543V104H579V125H513ZM537 110V56H519V119H573V110H537ZM45 224V215H36V149H246V158H261V149H318V158H327V179H318V185H327V215H318V224H261V215H246V224H108V215H102V224H81V215H66V224H45ZM180 203V170H138V176H174V197H138V203H180ZM132 209V191H168V182H132V164H177V155H114V218H177V209H132ZM255 194H261V188H255V194ZM282 197V203H297V197H282ZM303 191V209H276V200H258V209H267V218H312V209H321V191H312V182H276V164H303V173H321V164H312V155H267V164H258V182H267V191H303ZM297 170H282V176H297V170ZM87 191H78V155H69V191H60V155H42V209H51V218H60V209H69V200H78V209H87V218H96V209H105V155H87V191ZM231 182H204V164H231V182ZM210 170V176H225V170H210ZM231 209H204V191H231V209ZM225 197H210V203H225V197ZM333 224V203H351V170H333V149H399V170H381V203H399V224H333ZM375 209V164H393V155H339V164H357V209H339V218H393V209H375ZM423 224V170H405V149H543V170H498V176H534V197H498V203H543V224H468V170H453V224H423ZM447 164H465V155H411V164H429V218H447V164ZM492 209V191H528V182H492V164H537V155H474V218H537V209H492ZM15 119H60V110H69V65H60V56H15V65H6V110H15V119ZM186 218H240V209H249V191H240V182H249V164H240V155H186V218Z" fill="black"/>
</svg>
